<svg xmlns="http://www.w3.org/2000/svg" enable-background="new 0 0 64 64" viewBox="0 0 64 64"><path d="M57.3 26.8l-1.7 1.4c-.4.4-.5 1-.1 1.4 0 0 0 .1.1.1.4.4.9.4 1.3.1l1.7-1.4c.4-.4.5-1 .1-1.4C58.4 26.5 57.7 26.5 57.3 26.8zM52.7 30.6l-19 15.6c-.4.4-1.1.3-1.5-.1l-2.3-2.3c-.4-.4-1-.4-1.4 0-.4.4-.4 1 0 1.4l1.6 1.6-1.4 1.4L15.9 35.4l1.4-1.4 8.5 8.5c.4.4 1 .4 1.4 0 .4-.4.4-1 0-1.4l-9.3-9.3c-.4-.4-.4-1-.1-1.4.3-.4.3-1-.1-1.4-.4-.4-1.1-.3-1.4.1-.8 1-.9 2.3-.3 3.4L14.5 34l-.7-.7c-.4-.4-1-.4-1.4 0-3.5 3.5-3.5 9.2 0 12.7l5.7 5.7c3.5 3.5 9.2 3.5 12.7 0 .4-.4.4-1 0-1.4L30 49.5l1.5-1.5c1.1.6 2.5.5 3.4-.4l19-15.6c.4-.3.5-1 .1-1.4C53.8 30.3 53.2 30.2 52.7 30.6zM19.4 50.2l-5.7-5.7c-2.5-2.5-2.7-6.4-.7-9.1l15.5 15.5C25.8 52.9 21.9 52.7 19.4 50.2z"/><path d="M61.7,18.9C61.7,18.9,61.7,18.9,61.7,18.9L45.1,2.3c-1-1-2.3-1.5-3.7-1.4c-1.4,0.1-2.7,0.7-3.5,1.8L18.8,26.1
	c-0.6,0.8,0.1,1.4,0.1,1.4c0.4,0.4,1.1,0.3,1.4-0.1L39.4,3.9c0.5-0.6,1.3-1,2.1-1.1c0.8,0,1.6,0.3,2.2,0.8l2,2L22.2,31.9
	c-0.6,0.7,0.1,1.4,0.1,1.4c0.4,0.4,1,0.3,1.4-0.1L47.1,7.1l4.2,4.2L42,20.6c-0.4,0.4-0.4,1,0,1.4c0.4,0.4,1,0.4,1.4,0l9.3-9.3
	l4.2,4.2L30.8,40.3c-0.7,0.7-0.1,1.4,0,1.5c0.4,0.4,1,0.4,1.4,0l26.2-23.5l2,2c0,0,0,0,0,0c0.6,0.6,0.9,1.3,0.8,2.2
	c0,0.8-0.4,1.6-1.1,2.1c-0.4,0.4-0.5,1-0.1,1.4c0.4,0.4,1,0.5,1.4,0.1c1.1-0.9,1.7-2.2,1.8-3.6C63.2,21.2,62.7,19.8,61.7,18.9z"/><path d="M27.9,37.5l12.8-12.8c0.4-0.4,0.4-1,0-1.4c-0.4-0.4-1-0.4-1.4,0L26.5,36.1c-0.4,0.4-0.4,1,0,1.4
	C26.9,37.9,27.5,37.9,27.9,37.5z"/><circle cx="18.5" cy="45.3" r="1"/><circle cx="15.9" cy="42.5" r="1"/><circle cx="21.5" cy="48" r="1"/><circle cx="7.9" cy="48" r="1"/><circle cx="4" cy="52" r="1"/><circle cx="2" cy="60" r="1"/><circle cx="6" cy="56" r="1"/><circle cx="12" cy="52" r="1"/><circle cx="15.9" cy="56" r="1"/><circle cx="10" cy="58" r="1"/><circle cx="8" cy="62" r="1"/><circle cx="14" cy="62" r="1"/></svg>